<svg width="423" height="141" viewBox="0 0 423 141" fill="none" xmlns="http://www.w3.org/2000/svg">
<path d="M3.75897 3.7245C6.18648 1.25287 9.85976 0 14.675 0H16.4052V4.58087L15.0141 4.8425C12.6437 5.28775 10.9948 6.16362 10.1124 7.449C9.65195 8.14146 9.39081 8.93432 9.35453 9.75H14.675C15.1339 9.75 15.574 9.92121 15.8984 10.226C16.2229 10.5307 16.4052 10.944 16.4052 11.375V22.75C16.4052 24.5424 14.8532 26 12.9448 26H2.56338C2.10449 26 1.6644 25.8288 1.33992 25.524C1.01544 25.2193 0.833145 24.806 0.833145 24.375V16.25L0.838336 11.5066C0.822764 11.3263 0.49402 7.0525 3.75897 3.7245ZM31.9773 26H21.5959C21.137 26 20.6969 25.8288 20.3725 25.524C20.048 25.2193 19.8657 24.806 19.8657 24.375V16.25L19.8709 11.5066C19.8553 11.3263 19.5266 7.0525 22.7915 3.7245C25.219 1.25287 28.8923 0 33.7075 0H35.4378V4.58087L34.0467 4.8425C31.6762 5.28775 30.0273 6.16362 29.1449 7.449C28.6845 8.14146 28.4234 8.93432 28.3871 9.75H33.7075C34.1664 9.75 34.6065 9.92121 34.931 10.226C35.2555 10.5307 35.4378 10.944 35.4378 11.375V22.75C35.4378 24.5424 33.8857 26 31.9773 26Z" fill="#8A53FF"/>
<path d="M63.2318 20.528L61.2998 31.448H64.6178C65.7098 31.448 66.5218 31.322 67.0538 31.07C67.5858 30.79 67.9358 30.174 68.1038 29.222L70.0358 18.302H66.6758C65.6118 18.302 64.8138 18.442 64.2818 18.722C63.7498 18.974 63.3998 19.576 63.2318 20.528ZM68.0618 11.12C71.6178 11.12 74.1518 11.82 75.6638 13.22C77.1758 14.592 77.9318 16.72 77.9318 19.604C77.9318 22.488 77.4698 25.512 76.5458 28.676C75.6498 31.812 74.2078 34.262 72.2198 36.026C70.2598 37.762 67.3758 38.63 63.5678 38.63C59.7878 38.63 57.1418 37.944 55.6298 36.572C54.1178 35.172 53.3618 33.03 53.3618 30.146C53.3618 28.774 53.5578 26.968 53.9498 24.728C54.3418 22.46 54.8598 20.514 55.5038 18.89C56.1478 17.238 57.0158 15.81 58.1078 14.606C60.2078 12.282 63.5258 11.12 68.0618 11.12ZM85.6968 17L87.3348 19.1C90.0788 17.28 92.8928 16.37 95.7768 16.37C97.4288 16.37 98.7028 16.706 99.5988 17.378C100.523 18.05 100.985 19.002 100.985 20.234C100.985 20.43 100.957 20.752 100.901 21.2L97.9608 38H89.9808L92.5428 23.3H91.3248C90.4288 23.3 89.7288 23.412 89.2248 23.636C88.7208 23.832 88.4128 24.252 88.3008 24.896L85.9908 38H78.0108L81.7068 17H85.6968ZM110.255 30.86L110.003 32.33C110.787 32.414 111.585 32.456 112.397 32.456C114.973 32.456 117.535 32.036 120.083 31.196L119.957 37.37C116.849 38.21 113.783 38.63 110.759 38.63C104.879 38.63 101.939 36.082 101.939 30.986C101.939 25.218 103.703 21.032 107.231 18.428C109.135 17.056 111.431 16.37 114.119 16.37C117.619 16.37 120.055 16.748 121.427 17.504C122.799 18.232 123.485 19.478 123.485 21.242C123.485 23.006 123.261 24.448 122.813 25.568C122.393 26.688 121.833 27.584 121.133 28.256C120.433 28.928 119.495 29.46 118.319 29.852C116.303 30.468 113.615 30.804 110.255 30.86ZM111.431 24.266L111.137 25.988H112.775C113.699 25.988 114.399 25.89 114.875 25.694C115.351 25.47 115.659 24.98 115.799 24.224L116.135 22.502H114.497C113.545 22.502 112.831 22.614 112.355 22.838C111.879 23.034 111.571 23.51 111.431 24.266ZM130.778 30.986C130.778 26.786 131.842 23.3 133.97 20.528C136.126 17.756 139.346 16.37 143.63 16.37C146.738 16.37 149.006 17.014 150.434 18.302C151.89 19.562 152.618 21.508 152.618 24.14C152.618 26.772 152.184 29.152 151.316 31.28C150.476 33.408 149.062 35.172 147.074 36.572C145.086 37.944 142.594 38.63 139.598 38.63C133.718 38.63 130.778 36.082 130.778 30.986ZM140.27 24.266L138.842 32.498H140.06C141.012 32.498 141.726 32.4 142.202 32.204C142.678 31.98 142.986 31.49 143.126 30.734L144.596 22.502H143.336C142.384 22.502 141.67 22.614 141.194 22.838C140.718 23.034 140.41 23.51 140.27 24.266ZM165.673 15.236L165.379 17H167.773L166.807 22.46H164.413L161.683 38H153.703L156.433 22.46H154.417L155.383 17H157.399L158.113 14.48C159.009 11.26 161.641 9.65 166.009 9.65C167.101 9.65 168.529 9.79 170.293 10.07L168.907 15.572L165.673 15.236ZM174.151 22.418L175.117 17H177.091L177.679 13.64L186.037 11.54L185.071 17H187.843L186.877 22.418H184.105L182.425 31.994C183.125 32.134 183.895 32.232 184.735 32.288L183.307 38.462C179.387 38.462 176.867 38.196 175.747 37.664C174.571 37.076 173.983 36.166 173.983 34.934C173.983 34.794 174.011 34.5 174.067 34.052L176.125 22.418H174.151ZM196.716 25.064L194.448 38H186.468L191.256 10.7L199.362 10.07L197.976 17.756C199.88 16.832 201.812 16.37 203.772 16.37C207.552 16.37 209.442 17.658 209.442 20.234C209.442 20.43 209.414 20.752 209.358 21.2L206.418 38H198.438L201 23.3H199.782C198.83 23.3 198.116 23.412 197.64 23.636C197.164 23.832 196.856 24.308 196.716 25.064ZM218.712 30.86L218.46 32.33C219.244 32.414 220.042 32.456 220.854 32.456C223.43 32.456 225.992 32.036 228.54 31.196L228.414 37.37C225.306 38.21 222.24 38.63 219.216 38.63C213.336 38.63 210.396 36.082 210.396 30.986C210.396 25.218 212.16 21.032 215.688 18.428C217.592 17.056 219.888 16.37 222.576 16.37C226.076 16.37 228.512 16.748 229.884 17.504C231.256 18.232 231.942 19.478 231.942 21.242C231.942 23.006 231.718 24.448 231.27 25.568C230.85 26.688 230.29 27.584 229.59 28.256C228.89 28.928 227.952 29.46 226.776 29.852C224.76 30.468 222.072 30.804 218.712 30.86ZM219.888 24.266L219.594 25.988H221.232C222.156 25.988 222.856 25.89 223.332 25.694C223.808 25.47 224.116 24.98 224.256 24.224L224.592 22.502H222.954C222.002 22.502 221.288 22.614 220.812 22.838C220.336 23.034 220.028 23.51 219.888 24.266ZM238.604 36.95L243.224 10.7L251.33 10.07L250.07 17.042C251.162 16.594 252.534 16.37 254.186 16.37C258.834 16.37 261.158 18.946 261.158 24.098C261.158 29.754 259.422 33.898 255.95 36.53C254.102 37.93 251.848 38.63 249.188 38.63C245.156 38.63 241.628 38.07 238.604 36.95ZM248.852 24.056L247.382 32.498H248.642C249.594 32.498 250.294 32.4 250.742 32.204C251.218 31.98 251.526 31.49 251.666 30.734L253.136 22.502H251.918C250.77 22.502 250 22.656 249.608 22.964C249.216 23.244 248.964 23.608 248.852 24.056ZM270.684 30.86L270.432 32.33C271.216 32.414 272.014 32.456 272.826 32.456C275.402 32.456 277.964 32.036 280.512 31.196L280.386 37.37C277.278 38.21 274.212 38.63 271.188 38.63C265.308 38.63 262.368 36.082 262.368 30.986C262.368 25.218 264.132 21.032 267.66 18.428C269.564 17.056 271.86 16.37 274.548 16.37C278.048 16.37 280.484 16.748 281.856 17.504C283.228 18.232 283.914 19.478 283.914 21.242C283.914 23.006 283.69 24.448 283.242 25.568C282.822 26.688 282.262 27.584 281.562 28.256C280.862 28.928 279.924 29.46 278.748 29.852C276.732 30.468 274.044 30.804 270.684 30.86ZM271.86 24.266L271.566 25.988H273.204C274.128 25.988 274.828 25.89 275.304 25.694C275.78 25.47 276.088 24.98 276.228 24.224L276.564 22.502H274.926C273.974 22.502 273.26 22.614 272.784 22.838C272.308 23.034 272 23.51 271.86 24.266ZM285.36 25.61C285.36 22.614 286.228 20.332 287.964 18.764C289.728 17.168 292.318 16.37 295.734 16.37C299.178 16.37 302.09 16.804 304.47 17.672L302.538 23.384C300.606 22.768 298.59 22.46 296.49 22.46C295.818 22.46 294.894 22.516 293.718 22.628L293.466 23.972C297.078 23.972 299.626 24.448 301.11 25.4C302.594 26.324 303.336 27.668 303.336 29.432C303.336 35.564 299.822 38.63 292.794 38.63C288.622 38.63 285.304 38.224 282.84 37.412L284.856 31.448C287.012 32.176 289.364 32.54 291.912 32.54C293.144 32.54 294.25 32.484 295.23 32.372L295.482 31.028C291.786 31.028 289.168 30.594 287.628 29.726C286.116 28.83 285.36 27.458 285.36 25.61ZM305.535 22.418L306.501 17H308.475L309.063 13.64L317.421 11.54L316.455 17H319.227L318.261 22.418H315.489L313.809 31.994C314.509 32.134 315.279 32.232 316.119 32.288L314.691 38.462C310.771 38.462 308.251 38.196 307.131 37.664C305.955 37.076 305.367 36.166 305.367 34.934C305.367 34.794 305.395 34.5 305.451 34.052L307.509 22.418H305.535ZM63.4838 72.064L61.2158 85H53.2358L58.0238 57.7L66.1298 57.07L64.7438 64.756C66.6478 63.832 68.5798 63.37 70.5398 63.37C74.3198 63.37 76.2098 64.658 76.2098 67.234C76.2098 67.43 76.1818 67.752 76.1258 68.2L73.1858 85H65.2058L67.7678 70.3H66.5498C65.5978 70.3 64.8838 70.412 64.4078 70.636C63.9318 70.832 63.6238 71.308 63.4838 72.064ZM76.1983 85L79.6843 65.05L87.8743 64L84.1783 85H76.1983ZM80.0203 61.186C80.0203 59.562 80.4403 58.4 81.2803 57.7C82.1483 57 83.3943 56.65 85.0183 56.65C86.6423 56.65 87.7343 56.832 88.2943 57.196C88.8823 57.532 89.1763 58.106 89.1763 58.918C89.1763 60.57 88.7983 61.732 88.0423 62.404C87.3143 63.048 86.0823 63.37 84.3463 63.37C82.6383 63.37 81.4903 63.216 80.9023 62.908C80.3143 62.572 80.0203 61.998 80.0203 61.186ZM98.7861 85L97.1481 76.684H96.8541L95.4261 85H87.4461L92.2341 57.7L100.34 57.07L97.9041 70.93H98.1981L102.314 64H110.924L104.54 73.996L107.396 85H98.7861ZM117.804 77.86L117.552 79.33C118.336 79.414 119.134 79.456 119.946 79.456C122.522 79.456 125.084 79.036 127.632 78.196L127.506 84.37C124.398 85.21 121.332 85.63 118.308 85.63C112.428 85.63 109.488 83.082 109.488 77.986C109.488 72.218 111.252 68.032 114.78 65.428C116.684 64.056 118.98 63.37 121.668 63.37C125.168 63.37 127.604 63.748 128.976 64.504C130.348 65.232 131.034 66.478 131.034 68.242C131.034 70.006 130.81 71.448 130.362 72.568C129.942 73.688 129.382 74.584 128.682 75.256C127.982 75.928 127.044 76.46 125.868 76.852C123.852 77.468 121.164 77.804 117.804 77.86ZM118.98 71.266L118.686 72.988H120.324C121.248 72.988 121.948 72.89 122.424 72.694C122.9 72.47 123.208 71.98 123.348 71.224L123.684 69.502H122.046C121.094 69.502 120.38 69.614 119.904 69.838C119.428 70.034 119.12 70.51 118.98 71.266ZM132.48 72.61C132.48 69.614 133.348 67.332 135.084 65.764C136.848 64.168 139.438 63.37 142.854 63.37C146.298 63.37 149.21 63.804 151.59 64.672L149.658 70.384C147.726 69.768 145.71 69.46 143.61 69.46C142.938 69.46 142.014 69.516 140.838 69.628L140.586 70.972C144.198 70.972 146.746 71.448 148.23 72.4C149.714 73.324 150.456 74.668 150.456 76.432C150.456 82.564 146.942 85.63 139.914 85.63C135.742 85.63 132.424 85.224 129.96 84.412L131.976 78.448C134.132 79.176 136.484 79.54 139.032 79.54C140.264 79.54 141.37 79.484 142.35 79.372L142.602 78.028C138.906 78.028 136.288 77.594 134.748 76.726C133.236 75.83 132.48 74.458 132.48 72.61ZM160.602 85V64H168.414L167.826 76.474H168.288L173.034 64H178.998V76.474H179.46L183.576 64H191.43L183.744 85H173.916V75.97H173.58L170.304 85H160.602ZM198.939 77.86L198.687 79.33C199.471 79.414 200.269 79.456 201.081 79.456C203.657 79.456 206.219 79.036 208.767 78.196L208.641 84.37C205.533 85.21 202.467 85.63 199.443 85.63C193.563 85.63 190.623 83.082 190.623 77.986C190.623 72.218 192.387 68.032 195.915 65.428C197.819 64.056 200.115 63.37 202.803 63.37C206.303 63.37 208.739 63.748 210.111 64.504C211.483 65.232 212.169 66.478 212.169 68.242C212.169 70.006 211.945 71.448 211.497 72.568C211.077 73.688 210.517 74.584 209.817 75.256C209.117 75.928 208.179 76.46 207.003 76.852C204.987 77.468 202.299 77.804 198.939 77.86ZM200.115 71.266L199.821 72.988H201.459C202.383 72.988 203.083 72.89 203.559 72.694C204.035 72.47 204.343 71.98 204.483 71.224L204.819 69.502H203.181C202.229 69.502 201.515 69.614 201.039 69.838C200.563 70.034 200.255 70.51 200.115 71.266ZM213.657 62.95C213.657 59.226 215.393 57.364 218.865 57.364C220.237 57.364 221.203 57.574 221.763 57.994C222.323 58.414 222.603 59.1 222.603 60.052C222.603 60.5 222.533 61.102 222.393 61.858L222.309 62.362C222.113 63.314 221.847 64.07 221.511 64.63C221.203 65.19 220.923 65.638 220.671 65.974C220.447 66.31 220.307 66.534 220.251 66.646L216.513 72.358L213.153 71.14L215.589 65.05C214.889 64.938 214.385 64.714 214.077 64.378C213.797 64.042 213.657 63.566 213.657 62.95ZM225.666 85L224.364 64H232.092V77.65H232.512L237.132 64H245.112L236.418 85H225.666ZM251.854 77.86L251.602 79.33C252.386 79.414 253.184 79.456 253.996 79.456C256.572 79.456 259.134 79.036 261.682 78.196L261.556 84.37C258.448 85.21 255.382 85.63 252.358 85.63C246.478 85.63 243.538 83.082 243.538 77.986C243.538 72.218 245.302 68.032 248.83 65.428C250.734 64.056 253.03 63.37 255.718 63.37C259.218 63.37 261.654 63.748 263.026 64.504C264.398 65.232 265.084 66.478 265.084 68.242C265.084 70.006 264.86 71.448 264.412 72.568C263.992 73.688 263.432 74.584 262.732 75.256C262.032 75.928 261.094 76.46 259.918 76.852C257.902 77.468 255.214 77.804 251.854 77.86ZM253.03 71.266L252.736 72.988H254.374C255.298 72.988 255.998 72.89 256.474 72.694C256.95 72.47 257.258 71.98 257.398 71.224L257.734 69.502H256.096C255.144 69.502 254.43 69.614 253.954 69.838C253.478 70.034 253.17 70.51 253.03 71.266ZM291.445 85H287.455L286.027 83.236C284.571 84.832 282.345 85.63 279.349 85.63C274.701 85.63 272.377 83.068 272.377 77.944C272.377 75.928 272.657 74.024 273.217 72.232C273.777 70.44 274.407 69.012 275.107 67.948C275.807 66.856 276.801 65.932 278.089 65.176C279.377 64.392 280.861 64 282.541 64H287.161L288.253 57.7L296.359 57.07L291.445 85ZM281.869 71.266L280.441 79.498H281.659C282.555 79.498 283.241 79.414 283.717 79.246C284.193 79.05 284.515 78.63 284.683 77.986L286.195 69.502H284.935C283.983 69.502 283.269 69.614 282.793 69.838C282.317 70.034 282.009 70.51 281.869 71.266ZM295.675 77.986C295.675 73.786 296.739 70.3 298.867 67.528C301.023 64.756 304.243 63.37 308.527 63.37C311.635 63.37 313.903 64.014 315.331 65.302C316.787 66.562 317.515 68.508 317.515 71.14C317.515 73.772 317.081 76.152 316.213 78.28C315.373 80.408 313.959 82.172 311.971 83.572C309.983 84.944 307.491 85.63 304.495 85.63C298.615 85.63 295.675 83.082 295.675 77.986ZM305.167 71.266L303.739 79.498H304.957C305.909 79.498 306.623 79.4 307.099 79.204C307.575 78.98 307.883 78.49 308.023 77.734L309.493 69.502H308.233C307.281 69.502 306.567 69.614 306.091 69.838C305.615 70.034 305.307 70.51 305.167 71.266ZM325.783 64L327.421 66.1C330.165 64.28 332.979 63.37 335.863 63.37C337.515 63.37 338.789 63.706 339.685 64.378C340.609 65.05 341.071 66.002 341.071 67.234C341.071 67.43 341.043 67.752 340.987 68.2L338.047 85H330.067L332.629 70.3H331.411C330.515 70.3 329.815 70.412 329.311 70.636C328.807 70.832 328.499 71.252 328.387 71.896L326.077 85H318.097L321.793 64H325.783ZM350.341 77.86L350.089 79.33C350.873 79.414 351.671 79.456 352.483 79.456C355.059 79.456 357.621 79.036 360.169 78.196L360.043 84.37C356.935 85.21 353.869 85.63 350.845 85.63C344.965 85.63 342.025 83.082 342.025 77.986C342.025 72.218 343.789 68.032 347.317 65.428C349.221 64.056 351.517 63.37 354.205 63.37C357.705 63.37 360.141 63.748 361.513 64.504C362.885 65.232 363.571 66.478 363.571 68.242C363.571 70.006 363.347 71.448 362.899 72.568C362.479 73.688 361.919 74.584 361.219 75.256C360.519 75.928 359.581 76.46 358.405 76.852C356.389 77.468 353.701 77.804 350.341 77.86ZM351.517 71.266L351.223 72.988H352.861C353.785 72.988 354.485 72.89 354.961 72.694C355.437 72.47 355.745 71.98 355.885 71.224L356.221 69.502H354.583C353.631 69.502 352.917 69.614 352.441 69.838C351.965 70.034 351.657 70.51 351.517 71.266ZM371.745 72.61C371.745 69.614 372.613 67.332 374.349 65.764C376.113 64.168 378.703 63.37 382.119 63.37C385.563 63.37 388.475 63.804 390.855 64.672L388.923 70.384C386.991 69.768 384.975 69.46 382.875 69.46C382.203 69.46 381.279 69.516 380.103 69.628L379.851 70.972C383.463 70.972 386.011 71.448 387.495 72.4C388.979 73.324 389.721 74.668 389.721 76.432C389.721 82.564 386.207 85.63 379.179 85.63C375.007 85.63 371.689 85.224 369.225 84.412L371.241 78.448C373.397 79.176 375.749 79.54 378.297 79.54C379.529 79.54 380.635 79.484 381.615 79.372L381.867 78.028C378.171 78.028 375.553 77.594 374.013 76.726C372.501 75.83 371.745 74.458 371.745 72.61ZM391.291 77.986C391.291 73.786 392.355 70.3 394.483 67.528C396.639 64.756 399.859 63.37 404.143 63.37C407.251 63.37 409.519 64.014 410.947 65.302C412.403 66.562 413.131 68.508 413.131 71.14C413.131 73.772 412.697 76.152 411.829 78.28C410.989 80.408 409.575 82.172 407.587 83.572C405.599 84.944 403.107 85.63 400.111 85.63C394.231 85.63 391.291 83.082 391.291 77.986ZM400.783 71.266L399.355 79.498H400.573C401.525 79.498 402.239 79.4 402.715 79.204C403.191 78.98 403.499 78.49 403.639 77.734L405.109 69.502H403.849C402.897 69.502 402.183 69.614 401.707 69.838C401.231 70.034 400.923 70.51 400.783 71.266ZM65.7098 109.236L65.4158 111H67.8098L66.8438 116.46H64.4498L61.7198 132H53.7398L56.4698 116.46H54.4538L55.4198 111H57.4358L58.1498 108.48C59.0458 105.26 61.6778 103.65 66.0458 103.65C67.1378 103.65 68.5658 103.79 70.3298 104.07L68.9438 109.572L65.7098 109.236ZM89.0893 112.05L85.6033 132H81.6133L79.7233 129.606C78.8273 130.586 77.9173 131.342 76.9933 131.874C76.0973 132.378 74.9353 132.63 73.5073 132.63C70.9873 132.63 69.1813 131.93 68.0893 130.53C67.0253 129.13 66.4933 127.31 66.4933 125.07C66.4933 121.066 67.5573 117.622 69.6853 114.738C71.8413 111.826 74.8233 110.37 78.6313 110.37C81.8513 110.37 85.3373 110.93 89.0893 112.05ZM76.0273 118.266L74.5993 126.498H75.8173C76.4333 126.498 76.9093 126.484 77.2453 126.456C77.5813 126.4 77.9033 126.26 78.2113 126.036C78.5473 125.784 78.7573 125.434 78.8413 124.986L80.3533 116.502H79.0933C78.1413 116.502 77.4273 116.614 76.9513 116.838C76.4753 117.034 76.1673 117.51 76.0273 118.266ZM92.4877 111H96.4777L98.2837 113.352C100.104 111.84 102.232 110.846 104.668 110.37L103.786 118.308C103.142 118.336 102.274 118.504 101.182 118.812C100.09 119.12 99.3197 119.512 98.8717 119.988L96.7717 132H88.7917L92.4877 111ZM103.87 127.842C104.15 126.19 104.64 125.028 105.34 124.356C106.068 123.684 107.202 123.348 108.742 123.348C110.31 123.348 111.36 123.558 111.892 123.978C112.452 124.398 112.732 125 112.732 125.784C112.732 126.568 112.676 127.254 112.564 127.842C112.284 129.494 111.78 130.642 111.052 131.286C110.352 131.93 109.218 132.252 107.65 132.252C106.11 132.252 105.06 132.056 104.5 131.664C103.968 131.244 103.702 130.656 103.702 129.9C103.702 129.116 103.758 128.43 103.87 127.842ZM113.387 127.842C113.667 126.19 114.157 125.028 114.857 124.356C115.585 123.684 116.719 123.348 118.259 123.348C119.827 123.348 120.877 123.558 121.409 123.978C121.969 124.398 122.249 125 122.249 125.784C122.249 126.568 122.193 127.254 122.081 127.842C121.801 129.494 121.297 130.642 120.569 131.286C119.869 131.93 118.735 132.252 117.167 132.252C115.627 132.252 114.577 132.056 114.017 131.664C113.485 131.244 113.219 130.656 113.219 129.9C113.219 129.116 113.275 128.43 113.387 127.842ZM122.904 127.842C123.184 126.19 123.674 125.028 124.374 124.356C125.102 123.684 126.236 123.348 127.776 123.348C129.344 123.348 130.394 123.558 130.926 123.978C131.486 124.398 131.766 125 131.766 125.784C131.766 126.568 131.71 127.254 131.598 127.842C131.318 129.494 130.814 130.642 130.086 131.286C129.386 131.93 128.252 132.252 126.684 132.252C125.144 132.252 124.094 132.056 123.534 131.664C123.002 131.244 122.736 130.656 122.736 129.9C122.736 129.116 122.792 128.43 122.904 127.842Z" fill="#434343"/>
</svg>
